<?xml version="1.0" encoding="utf-8"?>
<!-- Generator: Adobe Illustrator 16.0.0, SVG Export Plug-In . SVG Version: 6.00 Build 0)  -->
<!DOCTYPE svg PUBLIC "-//W3C//DTD SVG 1.1//EN" "http://www.w3.org/Graphics/SVG/1.1/DTD/svg11.dtd">
<svg version="1.1" id="Calque_1" xmlns="http://www.w3.org/2000/svg" xmlns:xlink="http://www.w3.org/1999/xlink" x="0px" y="0px"
	 width="300px" height="300px" viewBox="0 0 300 300" enable-background="new 0 0 300 300" xml:space="preserve">
<circle fill="#FFF1E5" cx="150" cy="150" r="147.198"/>
<g display="none">
	<g id="Page-1" display="inline">
		<g id="_x30_01---Vet">
			<path id="Shape" fill="#FF7F00" d="M71.129,155.259c0.017,13.064,10.603,23.649,23.667,23.666h26.295v26.298
				c0.016,13.062,10.602,23.649,23.666,23.666h10.517c13.064-0.017,23.65-10.604,23.668-23.666v-15.488
				c0.86-0.2,1.742-0.301,2.629-0.291c2.356-0.047,4.658,0.728,6.51,2.188c2.742,2.046,6.086,3.126,9.509,3.073
				c5.14,0.203,9.843-2.866,11.729-7.647c2.547-7.166,0.725-15.158-4.676-20.513c-2.174-2.303-4.055-4.862-5.604-7.626
				c-3.477-5.677-7.066-11.546-17.469-11.546c-10.398,0-13.99,5.869-17.469,11.544c-1.547,2.762-3.43,5.32-5.602,7.626
				c-5.398,5.354-7.221,13.347-4.674,20.511c1.884,4.784,6.59,7.854,11.729,7.651c2.864,0.067,5.688-0.695,8.127-2.201v12.722
				c-0.013,10.159-8.246,18.395-18.408,18.404h-10.517c-10.162-0.012-18.396-8.245-18.407-18.404v-26.298
				c0-2.903-2.354-5.259-5.259-5.259H94.796c-10.162-0.014-18.396-8.247-18.408-18.407v-10.52
				c0.012-10.161,8.246-18.395,18.408-18.406h26.295c2.904,0,5.259-2.355,5.259-5.26V94.778
				c0.012-10.161,8.246-18.396,18.407-18.407h10.517c10.162,0.011,18.396,8.246,18.408,18.407v20.132
				c-2.57-3.025-6.468-4.59-10.416-4.182c-3.812,0.652-7.062,3.127-8.711,6.627c-1.883,3.76-2.537,8.012-1.873,12.162
				c0.532,4.169,2.357,8.067,5.223,11.145c2.234,2.474,5.389,3.924,8.722,4.013c0.503-0.001,1.006-0.036,1.504-0.107
				c3.812-0.652,7.063-3.128,8.711-6.627c1.417-2.779,2.142-5.858,2.103-8.979V94.778c-0.018-13.063-10.604-23.65-23.666-23.666
				h-10.519c-13.064,0.016-23.65,10.603-23.666,23.666v26.296H94.796c-13.064,0.015-23.65,10.602-23.667,23.666V155.259z
				 M165.555,189.443c-3.003,0.199-5.785-1.58-6.859-4.394c-1.688-5.192-0.332-10.897,3.516-14.776
				c2.479-2.597,4.622-5.488,6.387-8.612c3.323-5.438,5.522-9.032,12.977-9.032c7.451,0,9.652,3.594,12.982,9.032
				c1.764,3.124,3.907,6.019,6.385,8.612c3.845,3.879,5.199,9.584,3.512,14.776c-1.077,2.812-3.859,4.593-6.861,4.394
				c-2.396,0.054-4.74-0.729-6.624-2.213c-5.603-4.062-13.184-4.062-18.784,0C170.295,188.717,167.952,189.497,165.555,189.443z
				 M172.189,135.484c-0.773,2.078-2.617,3.566-4.812,3.882c-2.191,0.316-4.384-0.594-5.709-2.37
				c-2.089-2.279-3.414-5.155-3.786-8.227c-0.51-3.049-0.049-6.182,1.313-8.957c0.882-1.995,2.672-3.438,4.808-3.877
				c4.244-0.603,8.58,4.241,9.493,10.59c0.113,0.792,0.172,1.592,0.177,2.394v0.043
				C173.717,131.225,173.206,133.464,172.189,135.484L172.189,135.484z"/>
			<path id="Shape_1_" fill="#FF7F00" d="M139.587,138.614c-5.22,2.529-6.892,9.895-3.731,16.421
				c1.985,4.621,6.386,7.746,11.404,8.1c1.315,0.006,2.613-0.289,3.797-0.859c5.219-2.528,6.894-9.897,3.729-16.419
				S144.807,136.083,139.587,138.614L139.587,138.614z M148.764,157.546c-2.571,1.246-6.311-0.956-8.175-4.804
				c-1.865-3.847-1.272-8.151,1.292-9.393c0.493-0.237,1.032-0.356,1.578-0.351c2.967,0.407,5.489,2.375,6.605,5.154
				c1.856,3.844,1.266,8.157-1.3,9.39V157.546z"/>
			<path id="Shape_2_" fill="#FF7F00" d="M195.014,144.567c0.498,0.071,1,0.106,1.506,0.107c3.332-0.09,6.482-1.539,8.719-4.013
				c2.863-3.077,4.688-6.976,5.224-11.145c0.662-4.15,0.009-8.402-1.873-12.162c-1.646-3.5-4.899-5.975-8.711-6.627
				c-7.165-1.029-14.104,5.72-15.446,15.05c-0.66,4.15-0.005,8.403,1.873,12.162C187.948,141.439,191.2,143.915,195.014,144.567
				L195.014,144.567z M189.637,126.525c0.861-5.987,4.773-10.643,8.771-10.643c0.239,0.001,0.483,0.019,0.723,0.053
				c2.138,0.438,3.929,1.882,4.81,3.877c1.361,2.775,1.824,5.908,1.312,8.957c-0.373,3.071-1.695,5.947-3.787,8.227
				c-1.322,1.776-3.515,2.687-5.709,2.37c-2.191-0.315-4.037-1.804-4.811-3.882C189.584,132.707,189.126,129.574,189.637,126.525z"
				/>
			<path id="Shape_3_" fill="#FF7F00" d="M212.074,162.273c1.185,0.572,2.48,0.865,3.797,0.859
				c5.018-0.354,9.419-3.479,11.402-8.102c3.156-6.524,1.49-13.89-3.729-16.419c-5.22-2.531-12.036,0.719-15.198,7.24
				C205.184,152.376,206.863,159.745,212.074,162.273z M219.7,142.996c0.546-0.005,1.085,0.114,1.577,0.351
				c2.562,1.24,3.154,5.546,1.291,9.393c-1.864,3.848-5.611,6.048-8.172,4.804c-2.562-1.244-3.158-5.546-1.291-9.392
				C214.219,145.374,216.734,143.408,219.7,142.996L219.7,142.996z"/>
			<path id="Shape_4_" fill="#FF7F00" d="M86.907,144.74c0-4.356,3.532-7.889,7.889-7.889c1.452,0,2.629-1.177,2.629-2.63
				c0-1.451-1.177-2.63-2.629-2.63c-7.258,0.01-13.14,5.891-13.149,13.148c0,1.453,1.178,2.63,2.63,2.63
				C85.729,147.37,86.907,146.193,86.907,144.74z"/>
			<path id="Shape_5_" fill="#FF7F00" d="M107.943,136.852c1.452,0,2.629-1.177,2.629-2.63c0-1.451-1.177-2.63-2.629-2.63h-2.63
				c-1.452,0-2.63,1.179-2.63,2.63c0,1.453,1.178,2.63,2.63,2.63H107.943z"/>
		</g>
	</g>
</g>
<g id="Page-1_1_" display="none">
	<g id="_x30_33---Pet-Adoption" transform="translate(-1)" display="inline">
		<path id="Shape_11_" fill="#FF7F00" d="M66.522,127.608c0,33.562,21.774,79.975,83.147,100.324c0.863,0.287,1.798,0.287,2.66,0
			c61.373-20.363,83.147-66.773,83.147-100.324c0-31.258-19.48-55.756-44.353-55.756c-15.011,0.076-29.399,5.992-40.127,16.494
			c-10.726-10.502-25.117-16.418-40.126-16.494C86.003,71.853,66.522,96.351,66.522,127.608L66.522,127.608z M110.874,80.301
			c14.096,0.186,27.461,6.31,36.806,16.865c0.8,1.015,2.02,1.607,3.312,1.609c1.293,0,2.516-0.594,3.316-1.609
			c9.348-10.56,22.717-16.684,36.817-16.865c20.135,0,35.901,20.772,35.901,47.308c0,30.51-19.949,72.709-76.028,91.862
			c-56.08-19.166-76.03-61.367-76.03-91.862C74.97,101.073,90.738,80.301,110.874,80.301L110.874,80.301z"/>
		<path id="Shape_10_" fill="#FF7F00" d="M173.919,158.02c-4.618-8.272-10.356-18.584-22.919-18.584
			c-12.562,0-18.303,10.312-22.919,18.584c-1.486,2.9-3.228,5.662-5.208,8.248c-5.54,6.611-7.071,15.7-4.005,23.762
			c2.577,5.521,8.266,8.906,14.349,8.541c3.609-0.09,7.163-0.906,10.446-2.406c2.298-1.094,4.794-1.712,7.337-1.816
			c2.542,0.104,5.038,0.725,7.337,1.816c3.283,1.5,6.837,2.316,10.446,2.406c6.083,0.373,11.777-3.008,14.359-8.527
			c3.064-8.062,1.534-17.148-4.004-23.76C177.154,163.689,175.407,160.924,173.919,158.02L173.919,158.02z M175.469,186.463
			c-1.225,2.518-3.906,3.982-6.686,3.657c-2.545-0.104-5.039-0.724-7.338-1.813c-3.282-1.502-6.836-2.32-10.445-2.41
			c-3.608,0.09-7.163,0.908-10.446,2.41c-2.299,1.092-4.794,1.709-7.337,1.813c-2.777,0.328-5.457-1.134-6.686-3.644
			c-1.701-5.072-0.639-10.662,2.804-14.754c2.334-2.998,4.385-6.205,6.125-9.582c4.941-8.869,8.447-14.261,15.539-14.261
			c7.093,0,10.599,5.388,15.54,14.261c1.738,3.377,3.789,6.584,6.123,9.582c3.443,4.092,4.507,9.682,2.806,14.754L175.469,186.463
			L175.469,186.463z"/>
		<path id="Shape_9_" fill="#FF7F00" d="M113.234,121.09c1.816,10.505,9.58,18.13,17.921,18.13c0.781,0,1.56-0.066,2.328-0.199
			c4.837-0.973,8.926-4.181,11.025-8.646c4.502-9.608,2.527-21.003-4.942-28.537c-3.405-3.615-8.4-5.28-13.293-4.43
			c-4.894,0.85-9.034,4.101-11.02,8.653C112.986,110.725,112.277,115.993,113.234,121.09L113.234,121.09z M122.776,109.867
			c0.919-2.074,2.744-3.609,4.946-4.16c0.307-0.047,0.615-0.069,0.925-0.064c1.94,0.122,3.767,0.955,5.127,2.341
			c4.733,4.958,6.003,12.286,3.211,18.548c-0.917,2.075-2.742,3.612-4.942,4.164c-4.494,0.803-9.314-4.274-10.488-11.045
			C120.92,116.342,121.348,112.918,122.776,109.867z"/>
		<path id="Shape_8_" fill="#FF7F00" d="M120.973,147.548c-2.082-8.495-10.612-13.732-19.13-11.746
			c-3.977,1.276-7.165,4.279-8.675,8.173c-3.164,8.132-0.294,17.371,6.918,22.281c2.326,1.551,5.053,2.391,7.848,2.416
			c1.333,0,2.66-0.201,3.932-0.6c3.979-1.274,7.169-4.278,8.68-8.174C122.124,155.958,122.274,151.589,120.973,147.548
			L120.973,147.548z M112.744,156.66c-0.516,1.599-1.777,2.847-3.381,3.346c-1.604,0.497-3.351,0.184-4.682-0.841
			c-3.79-2.69-5.312-7.584-3.717-11.95c0.57-1.564,1.809-2.791,3.379-3.345c0.45-0.142,0.919-0.212,1.39-0.212
			c3.495,0.422,6.358,2.973,7.181,6.395C113.616,152.21,113.556,154.542,112.744,156.66L112.744,156.66z"/>
		<path id="Shape_7_" fill="#FF7F00" d="M168.664,139.012c0.768,0.134,1.546,0.199,2.322,0.199c8.347,0,16.104-7.629,17.927-18.129
			c0.952-5.092,0.247-10.354-2.011-15.017c-2.101-4.466-6.19-7.673-11.028-8.646c-9.157-1.566-18.265,6.455-20.249,17.931
			S159.48,137.428,168.664,139.012z M173.496,105.643c0.312,0,0.622,0.027,0.931,0.081c2.199,0.551,4.022,2.086,4.94,4.16
			c1.425,3.046,1.852,6.463,1.221,9.767c-1.17,6.758-5.98,11.826-10.484,11.045c-4.5-0.781-7.336-7.16-6.166-13.938
			C165.031,110.468,169.271,105.643,173.496,105.643L173.496,105.643z"/>
		<path id="Shape_6_" fill="#FF7F00" d="M200.157,135.802c-8.519-1.99-17.052,3.249-19.132,11.746
			c-1.301,4.041-1.152,8.409,0.424,12.353c1.511,3.896,4.701,6.897,8.681,8.174c1.272,0.396,2.599,0.6,3.933,0.6
			c2.795-0.025,5.521-0.865,7.85-2.416c7.212-4.91,10.082-14.146,6.918-22.281C207.318,140.082,204.133,137.079,200.157,135.802
			L200.157,135.802z M201.195,153.816c-0.641,2.175-2.01,4.062-3.877,5.349c-1.33,1.024-3.076,1.338-4.684,0.841
			c-1.604-0.499-2.865-1.747-3.382-3.346c-0.81-2.118-0.862-4.448-0.16-6.603c1.36-4.376,5.271-7.18,8.554-6.188
			c1.57,0.554,2.811,1.78,3.381,3.345C201.838,149.331,201.896,151.663,201.195,153.816L201.195,153.816z"/>
	</g>
</g>
<g display="none">
	<path display="inline" fill="#FF7F00" d="M154.609,113.127c0-23.044-18.609-41.791-41.483-41.791
		c-22.936,0-41.79,18.861-41.79,41.791c0,21.327,16.299,38.943,37.182,41.229v27.91H94.689c-2.546,0-4.609,2.062-4.609,4.607
		c0,2.547,2.063,4.609,4.609,4.609h13.828v13.828c0,2.545,2.062,4.607,4.608,4.607s4.609-2.062,4.609-4.607v-13.828h13.828
		c2.545,0,4.608-2.062,4.608-4.609c0-2.545-2.063-4.607-4.608-4.607h-13.828v-27.914
		C138.448,152.051,154.609,134.442,154.609,113.127z M80.555,113.127c0-17.961,14.612-32.573,32.571-32.573
		c17.791,0,32.265,14.612,32.265,32.573c0,17.79-14.474,32.264-32.265,32.264C95.167,145.391,80.555,130.917,80.555,113.127z"/>
	<path display="inline" fill="#FF7F00" d="M191.482,145.644v-39.827l10.567,10.568c1.802,1.801,4.72,1.801,6.521,0
		c1.8-1.8,1.8-4.718,0-6.518L190.133,91.43c-1.8-1.801-4.719-1.801-6.52,0l-18.438,18.437c-1.801,1.8-1.801,4.718,0,6.518
		c1.801,1.801,4.719,1.801,6.52,0l10.568-10.568v39.832c-20.715,2.301-36.875,19.91-36.875,41.225
		c0,23.044,18.61,41.791,41.483,41.791c22.938,0,41.79-18.86,41.79-41.791C228.664,165.546,212.365,147.929,191.482,145.644z
		 M186.874,219.445c-17.791,0-32.265-14.611-32.265-32.572c0-17.789,14.474-32.266,32.265-32.266
		c17.961,0,32.571,14.477,32.571,32.266C219.445,204.834,204.835,219.445,186.874,219.445z"/>
</g>
<g display="none">
	<path display="inline" fill="#FF7F00" d="M214.801,89.84h-7.312v-3.17c0-4.332-3.523-7.855-7.855-7.855
		c-4.333,0-7.855,3.524-7.855,7.855v3.17h-6.892v-3.17c0-4.332-3.522-7.855-7.854-7.855c-4.329,0-7.855,3.524-7.855,7.855v3.17
		h-38.345v-3.17c0-4.332-3.524-7.855-7.856-7.855c-4.331,0-7.856,3.524-7.856,7.855v3.17h-6.89v-3.17
		c0-4.332-3.525-7.855-7.856-7.855s-7.856,3.524-7.856,7.855v3.17h-7.314c-4.302,0-7.802,3.5-7.802,7.802v115.741
		c0,4.303,3.5,7.803,7.802,7.803h101.104c2.748,0,2.748-4.254,0-4.254H85.199c-1.956,0-3.548-1.593-3.548-3.549v-92.71h12.278
		c2.75,0,2.75-4.253,0-4.253H81.651V97.643c0-1.957,1.592-3.549,3.548-3.549h7.314v3.338c0,4.332,3.525,7.854,7.856,7.854
		s7.856-3.523,7.856-7.854v-3.338h6.89v3.338c0,4.332,3.525,7.854,7.856,7.854c4.332,0,7.856-3.523,7.856-7.854v-3.338h38.344v3.338
		c0,4.332,3.526,7.854,7.856,7.854s7.854-3.523,7.854-7.854v-3.338h6.893v3.338c0,4.332,3.521,7.854,7.854,7.854
		c4.332,0,7.854-3.523,7.854-7.854v-3.338h7.313c1.956,0,3.548,1.591,3.548,3.549v18.777h-111.57c-2.75,0-2.75,4.253,0,4.253H218.35
		v92.71c0,1.956-1.593,3.549-3.549,3.549h-15.736c-2.75,0-2.75,4.254,0,4.254h15.736c4.303,0,7.803-3.5,7.803-7.803V97.643
		C222.604,93.34,219.104,89.84,214.801,89.84z M103.972,97.432c0,1.985-1.617,3.602-3.603,3.602c-1.985,0-3.601-1.616-3.601-3.602
		V86.67c0-1.985,1.616-3.601,3.601-3.601c1.986,0,3.603,1.616,3.603,3.601V97.432z M126.573,97.432c0,1.985-1.615,3.602-3.602,3.602
		c-1.986,0-3.602-1.616-3.602-3.602V86.67c0-1.985,1.615-3.601,3.602-3.601c1.987,0,3.602,1.616,3.602,3.601V97.432z
		 M180.629,97.432c0,1.985-1.613,3.602-3.602,3.602c-1.986,0-3.604-1.616-3.604-3.602V86.67c0-1.985,1.616-3.601,3.604-3.601
		c1.988,0,3.602,1.616,3.602,3.601V97.432z M203.232,97.432c0,1.985-1.616,3.602-3.604,3.602c-1.984,0-3.604-1.616-3.604-3.602
		V86.67c0-1.985,1.615-3.601,3.604-3.601c1.984,0,3.604,1.616,3.604,3.601V97.432z"/>
	<path display="inline" fill="#FF7F00" d="M118.091,130.382c-4.292,0-7.784,3.492-7.784,7.783c0,4.292,3.491,7.783,7.784,7.783
		c4.291,0,7.783-3.491,7.783-7.783C125.874,133.874,122.382,130.382,118.091,130.382z M118.091,141.693
		c-1.946,0-3.529-1.583-3.529-3.528c0-1.945,1.583-3.528,3.529-3.528c1.945,0,3.528,1.583,3.528,3.528
		C121.619,140.11,120.036,141.693,118.091,141.693z"/>
	<path display="inline" fill="#FF7F00" d="M139.111,130.382c-4.291,0-7.782,3.492-7.782,7.783c0,4.292,3.491,7.783,7.784,7.783
		c4.291,0,7.783-3.491,7.783-7.783C146.896,133.874,143.404,130.382,139.111,130.382L139.111,130.382z M139.113,141.693
		c-1.947,0-3.53-1.583-3.53-3.528c0-1.945,1.583-3.528,3.53-3.528c1.946,0,3.528,1.583,3.528,3.528
		C142.641,140.11,141.059,141.693,139.113,141.693z"/>
	<path display="inline" fill="#FF7F00" d="M181.156,130.382c-4.292,0-7.784,3.492-7.784,7.783c0,4.292,3.492,7.783,7.784,7.783
		c4.291,0,7.781-3.491,7.781-7.783C188.938,133.874,185.447,130.382,181.156,130.382z M181.156,141.693
		c-1.946,0-3.529-1.583-3.529-3.528c0-1.945,1.583-3.528,3.529-3.528c1.945,0,3.527,1.583,3.527,3.528
		C184.684,140.11,183.102,141.693,181.156,141.693z"/>
	<path display="inline" fill="#FF7F00" d="M202.178,145.947c4.291,0,7.782-3.491,7.782-7.783c0-4.291-3.491-7.783-7.782-7.783
		s-7.783,3.492-7.783,7.783C194.395,142.457,197.885,145.947,202.178,145.947L202.178,145.947z M202.178,134.636
		c1.945,0,3.528,1.583,3.528,3.528c0,1.945-1.583,3.528-3.528,3.528s-3.529-1.583-3.529-3.528
		C198.648,136.219,200.23,134.636,202.178,134.636z"/>
	<path display="inline" fill="#FF7F00" d="M97.069,150.476c-4.292,0-7.783,3.491-7.783,7.783s3.491,7.782,7.783,7.782
		s7.783-3.49,7.783-7.782S101.361,150.476,97.069,150.476z M97.069,161.788c-1.946,0-3.529-1.584-3.529-3.529
		c0-1.946,1.583-3.528,3.529-3.528c1.945,0,3.529,1.582,3.529,3.528C100.598,160.204,99.014,161.788,97.069,161.788z"/>
	<path display="inline" fill="#FF7F00" d="M118.091,150.476c-4.292,0-7.784,3.491-7.784,7.783s3.491,7.782,7.784,7.782
		c4.291,0,7.783-3.49,7.783-7.782S122.382,150.476,118.091,150.476z M118.091,161.788c-1.946,0-3.529-1.584-3.529-3.529
		c0-1.946,1.583-3.528,3.529-3.528c1.945,0,3.528,1.582,3.528,3.528C121.62,160.204,120.036,161.788,118.091,161.788z"/>
	<path display="inline" fill="#FF7F00" d="M139.111,150.476c-4.291,0-7.782,3.491-7.782,7.783s3.491,7.782,7.784,7.782
		c4.291,0,7.783-3.49,7.783-7.782S143.404,150.476,139.111,150.476L139.111,150.476z M139.113,161.788
		c-1.947,0-3.53-1.584-3.53-3.529c0-1.946,1.583-3.528,3.53-3.528c1.946,0,3.528,1.582,3.528,3.528
		C142.642,160.204,141.059,161.788,139.113,161.788z"/>
	<path display="inline" fill="#FF7F00" d="M181.156,150.476c-4.292,0-7.784,3.491-7.784,7.783s3.492,7.782,7.784,7.782
		c4.291,0,7.781-3.49,7.781-7.782S185.447,150.476,181.156,150.476z M181.156,161.788c-1.946,0-3.529-1.584-3.529-3.529
		c0-1.946,1.583-3.528,3.529-3.528c1.945,0,3.527,1.582,3.527,3.528C184.686,160.204,183.102,161.788,181.156,161.788z"/>
	<path display="inline" fill="#FF7F00" d="M202.178,166.041c4.291,0,7.782-3.49,7.782-7.782s-3.491-7.783-7.782-7.783
		s-7.783,3.491-7.783,7.783S197.885,166.041,202.178,166.041z M202.178,154.73c1.945,0,3.528,1.582,3.528,3.526
		c0,1.945-1.583,3.529-3.528,3.529s-3.529-1.584-3.529-3.529C198.648,156.312,200.23,154.73,202.178,154.73z"/>
	<path display="inline" fill="#FF7F00" d="M97.069,170.568c-4.292,0-7.783,3.492-7.783,7.783c0,4.293,3.491,7.782,7.783,7.782
		s7.783-3.489,7.783-7.782C104.853,174.061,101.361,170.568,97.069,170.568z M97.069,181.883c-1.946,0-3.529-1.584-3.529-3.529
		s1.583-3.527,3.529-3.527c1.945,0,3.529,1.582,3.529,3.527S99.014,181.883,97.069,181.883z"/>
	<path display="inline" fill="#FF7F00" d="M118.091,170.568c-4.292,0-7.784,3.492-7.784,7.783c0,4.293,3.491,7.782,7.784,7.782
		c4.291,0,7.783-3.489,7.783-7.782C125.874,174.061,122.382,170.568,118.091,170.568z M118.091,181.883
		c-1.946,0-3.529-1.584-3.529-3.529s1.583-3.527,3.529-3.527c1.945,0,3.528,1.582,3.528,3.527S120.036,181.883,118.091,181.883z"/>
	<path display="inline" fill="#FF7F00" d="M139.111,170.568c-4.291,0-7.782,3.492-7.782,7.783c0,4.293,3.491,7.782,7.784,7.782
		c4.291,0,7.783-3.489,7.783-7.782C146.896,174.061,143.404,170.568,139.111,170.568L139.111,170.568z M139.113,181.883
		c-1.947,0-3.53-1.584-3.53-3.529s1.583-3.527,3.53-3.527c1.946,0,3.528,1.582,3.528,3.527S141.059,181.883,139.113,181.883z"/>
	<path display="inline" fill="#FF7F00" d="M181.156,170.568c-4.292,0-7.784,3.492-7.784,7.783c0,4.293,3.492,7.782,7.784,7.782
		c4.291,0,7.781-3.489,7.781-7.782C188.938,174.061,185.447,170.568,181.156,170.568z M181.156,181.883
		c-1.946,0-3.529-1.584-3.529-3.529s1.583-3.527,3.529-3.527c1.945,0,3.527,1.582,3.527,3.527S183.102,181.883,181.156,181.883z"/>
	<path display="inline" fill="#FF7F00" d="M160.133,130.382c-4.291,0-7.781,3.492-7.781,7.783c0,4.292,3.49,7.783,7.781,7.783
		c4.292,0,7.783-3.491,7.783-7.783C167.916,133.874,164.425,130.382,160.133,130.382z M160.133,141.693
		c-1.945,0-3.527-1.583-3.527-3.528c0-1.945,1.582-3.528,3.527-3.528c1.946,0,3.529,1.583,3.529,3.528
		C163.662,140.11,162.08,141.693,160.133,141.693z"/>
	<path display="inline" fill="#FF7F00" d="M160.133,150.476c-4.291,0-7.781,3.491-7.781,7.783s3.49,7.782,7.781,7.782
		c4.292,0,7.783-3.49,7.783-7.782S164.425,150.476,160.133,150.476z M160.133,161.788c-1.945,0-3.527-1.584-3.527-3.529
		c0-1.946,1.582-3.528,3.527-3.528c1.946,0,3.529,1.582,3.529,3.528C163.662,160.204,162.08,161.788,160.133,161.788z"/>
	<path display="inline" fill="#FF7F00" d="M160.133,170.568c-4.291,0-7.781,3.492-7.781,7.783c0,4.293,3.49,7.782,7.781,7.782
		c4.292,0,7.783-3.489,7.783-7.782C167.916,174.061,164.425,170.568,160.133,170.568z M160.133,181.883
		c-1.945,0-3.527-1.584-3.527-3.529s1.582-3.527,3.527-3.527c1.946,0,3.529,1.582,3.529,3.527S162.08,181.883,160.133,181.883z"/>
	<path display="inline" fill="#FF7F00" d="M209.96,178.354c0-4.293-3.491-7.783-7.782-7.783s-7.783,3.49-7.783,7.783
		s3.492,7.782,7.783,7.782S209.96,182.646,209.96,178.354z M198.648,178.354c0-1.945,1.582-3.527,3.526-3.527
		c1.946,0,3.529,1.582,3.529,3.527s-1.583,3.529-3.529,3.529C200.23,181.883,198.648,180.299,198.648,178.354z"/>
	<path display="inline" fill="#FF7F00" d="M97.069,190.663c-4.292,0-7.783,3.491-7.783,7.782c0,4.293,3.491,7.785,7.783,7.785
		s7.783-3.492,7.783-7.785C104.853,194.154,101.361,190.663,97.069,190.663z M97.069,201.975c-1.946,0-3.529-1.582-3.529-3.526
		s1.583-3.528,3.529-3.528c1.945,0,3.529,1.584,3.529,3.528S99.014,201.975,97.069,201.975z"/>
	<path display="inline" fill="#FF7F00" d="M118.091,190.663c-4.292,0-7.784,3.491-7.784,7.782c0,4.293,3.491,7.785,7.784,7.785
		c4.291,0,7.783-3.492,7.783-7.785C125.874,194.154,122.382,190.663,118.091,190.663z M118.091,201.975
		c-1.946,0-3.529-1.582-3.529-3.526s1.583-3.528,3.529-3.528c1.945,0,3.528,1.584,3.528,3.528
		C121.62,200.393,120.036,201.975,118.091,201.975z"/>
	<path display="inline" fill="#FF7F00" d="M139.111,190.663c-4.291,0-7.782,3.491-7.782,7.782c0,4.293,3.491,7.785,7.784,7.785
		c4.291,0,7.783-3.492,7.783-7.785C146.896,194.154,143.404,190.663,139.111,190.663L139.111,190.663z M139.113,201.975
		c-1.947,0-3.53-1.582-3.53-3.526s1.583-3.528,3.53-3.528c1.946,0,3.528,1.584,3.528,3.528
		C142.642,200.393,141.059,201.975,139.113,201.975z"/>
</g>
<path display="none" fill="#FF7F00" d="M222.811,145.448c-0.065-3.551-1.511-6.864-4.062-9.333l-10.854-11.036V98.923
	c0-6.759-5.498-12.257-12.265-12.257c-6.759,0-12.256,5.498-12.256,12.257v1.221l-24.052-24.457
	c-0.021-0.019-0.039-0.041-0.062-0.059c-5.191-4.992-13.329-4.992-18.521,0c-0.02,0.019-0.04,0.038-0.06,0.058l-19.84,20.14
	c-1.183,1.2-1.168,3.132,0.032,4.314c1.201,1.183,3.134,1.167,4.315-0.031l19.809-20.108c2.814-2.677,7.194-2.677,10.009-0.001
	l59.421,60.422c0.021,0.02,0.04,0.041,0.062,0.059c1.396,1.344,2.188,3.15,2.225,5.086c0.037,1.935-0.684,3.771-2.023,5.166
	c-1.381,1.437-3.238,2.227-5.232,2.227c-1.87,0-3.645-0.708-4.999-1.995l-52.271-53.547c-0.576-0.588-1.361-0.919-2.185-0.919
	c-0.822,0-1.609,0.331-2.183,0.919l-52.271,53.547c-2.886,2.741-7.467,2.644-10.23-0.229c-1.345-1.396-2.063-3.229-2.025-5.167
	c0.037-1.935,0.827-3.74,2.223-5.083c0.021-0.019,0.039-0.038,0.058-0.057l19.107-19.373c1.183-1.2,1.169-3.131-0.03-4.315
	c-1.2-1.184-3.132-1.171-4.316,0.03l-19.08,19.347c-2.553,2.468-3.997,5.783-4.064,9.334c-0.069,3.567,1.255,6.946,3.729,9.517
	c3.391,3.522,8.266,4.778,12.711,3.731v56.895c0,6.906,5.623,12.524,12.532,12.524h87.676c6.909,0,12.532-5.618,12.532-12.524
	v-56.887c0.999,0.231,2.03,0.354,3.083,0.354c3.667,0,7.087-1.455,9.629-4.096C221.559,152.395,222.882,149.015,222.811,145.448z
	 M189.475,98.923c0-3.394,2.765-6.155,6.164-6.155c3.395,0,6.154,2.762,6.154,6.155v19.951l-12.318-12.525V98.923L189.475,98.923z
	 M200.27,215.591c0,3.543-2.886,6.425-6.432,6.425h-87.676c-3.545,0-6.43-2.882-6.43-6.425v-60.187
	c0.025-0.024,0.05-0.051,0.077-0.073c0.022-0.021,0.045-0.045,0.068-0.067L150,103.916l50.123,51.348
	c0.023,0.022,0.047,0.045,0.068,0.067c0.024,0.026,0.053,0.05,0.076,0.073v60.187H200.27z"/>
<path display="none" fill="#FF7F00" d="M116.066,108.184c-0.762,0-1.523-0.285-2.114-0.856l-0.01-0.009
	c-1.211-1.171-1.242-3.104-0.07-4.314c1.171-1.211,3.104-1.242,4.314-0.071c1.211,1.173,1.247,3.107,0.075,4.318
	C117.662,107.872,116.864,108.184,116.066,108.184z"/>
<path display="none" fill="#FF7F00" d="M177.204,157.055c-1.433-0.283-2.868-0.228-4.253,0.15c0.229-1.201,0.347-2.457,0.347-3.745
	c0-8.93-5.764-16.192-12.848-16.192c-4.302,0-8.117,2.677-10.451,6.777c-2.334-4.101-6.148-6.777-10.448-6.777
	c-7.085,0-12.848,7.266-12.848,16.192c0,1.288,0.12,2.544,0.347,3.746c-1.385-0.377-2.824-0.435-4.255-0.151
	c-3.013,0.592-5.487,2.588-6.962,5.618c-1.336,2.745-1.707,6.113-1.043,9.479c1.182,6.002,5.292,10.314,10.01,11.013
	c-1.071,2.321-1.656,4.884-1.656,7.542c0,9.938,8.092,18.025,18.038,18.025c3.125,0,6.135-0.793,8.819-2.309
	c2.683,1.516,5.694,2.309,8.819,2.309c9.947,0,18.039-8.088,18.039-18.027c-0.002-2.656-0.588-5.221-1.66-7.54
	c4.72-0.696,8.832-5.011,10.015-11.013c0.664-3.366,0.291-6.733-1.044-9.479C182.691,159.643,180.218,157.646,177.204,157.055z
	 M160.45,143.37c3.655,0,6.745,4.62,6.745,10.09c0,5.472-3.09,10.091-6.745,10.091c-3.659,0-6.75-4.619-6.75-10.091
	C153.7,147.99,156.791,143.37,160.45,143.37z M139.551,143.37c3.656,0,6.748,4.62,6.748,10.09c0,5.472-3.092,10.091-6.748,10.091
	c-3.657,0-6.745-4.619-6.745-10.091C132.804,147.99,135.894,143.37,139.551,143.37z M120.775,170.973
	c-0.408-2.07-0.216-4.067,0.543-5.627c0.438-0.897,1.251-2.029,2.655-2.304c0.207-0.041,0.412-0.06,0.609-0.06
	c1.135,0,2.086,0.617,2.721,1.184c1.291,1.154,2.228,2.934,2.637,5.007c0.409,2.071,0.215,4.068-0.542,5.626
	c-0.436,0.897-1.251,2.026-2.655,2.303C124.217,177.598,121.539,174.85,120.775,170.973z M158.818,202.628
	c-2.541,0-4.967-0.79-7.019-2.291c-0.536-0.392-1.17-0.588-1.802-0.588c-0.631,0-1.264,0.194-1.799,0.588
	c-2.055,1.499-4.481,2.291-7.021,2.291c-6.581,0-11.936-5.347-11.936-11.923c0-4.738,2.82-9.03,7.184-10.936
	c0.95-0.412,1.626-1.285,1.791-2.309c0.926-5.71,5.99-10.016,11.781-10.016c5.79,0,10.854,4.306,11.777,10.016
	c0.166,1.021,0.841,1.896,1.791,2.309c4.363,1.903,7.185,6.195,7.188,10.936C170.757,197.281,165.4,202.628,158.818,202.628z
	 M179.227,170.973c-0.767,3.877-3.443,6.631-5.971,6.129c-1.404-0.274-2.22-1.403-2.656-2.303c-0.757-1.558-0.947-3.555-0.539-5.626
	c0.407-2.073,1.344-3.853,2.635-5.007c0.636-0.566,1.587-1.184,2.724-1.184c0.195,0,0.399,0.019,0.606,0.06
	c0.002,0,0.004,0.001,0.004,0.001c1.4,0.273,2.217,1.402,2.652,2.303C179.439,166.904,179.633,168.902,179.227,170.973z"/>
<g display="none">
	<path display="inline" fill="#FF7F00" d="M219.953,143.942h-9.797c-1.07,0-2.104,0.448-2.836,1.228
		c-0.734,0.78-1.115,1.84-1.051,2.909c0.275,4.455,0.543,8.319,0.734,11.144c0.33,4.776,0.488,7.129,0.488,8.401
		c0,8.097-6.404,14.687-14.279,14.687c-7.873,0-14.277-6.59-14.277-14.687c0-0.075,0.017-7.58,0.941-19.482
		c0.084-1.08-0.289-2.154-1.023-2.95c-0.734-0.793-1.775-1.249-2.857-1.249h-9.057c-1.07,0-2.105,0.448-2.838,1.228
		c-0.733,0.781-1.115,1.84-1.051,2.909c0.256,4.094,0.506,7.716,0.703,10.627l0.035,0.516c0.325,4.75,0.486,7.135,0.486,8.402
		c0,8.098-6.404,14.686-14.277,14.686s-14.279-6.588-14.279-14.686c0-0.075,0.017-7.578,0.942-19.482
		c0.085-1.08-0.289-2.154-1.024-2.95c-0.734-0.793-1.775-1.249-2.857-1.249h-7.959c-1.07,0-2.104,0.448-2.837,1.228
		c-0.733,0.78-1.116,1.84-1.05,2.909c0.258,4.133,0.509,7.78,0.709,10.711l0.03,0.431c0.325,4.75,0.488,7.133,0.488,8.403
		c0,8.097-6.406,14.687-14.279,14.687c-7.874,0-14.279-6.59-14.279-14.687c0-0.075,0.017-7.578,0.942-19.482
		c0.085-1.08-0.29-2.154-1.024-2.95c-0.734-0.793-1.775-1.249-2.857-1.249H80.047c-2.147,0-3.895,1.747-3.895,3.894v48.224
		c0,1.194,0.97,2.164,2.164,2.164s2.163-0.97,2.163-2.164V148.27h9.718c-0.909,11.858-0.919,19.278-0.919,19.354
		c0,10.483,8.346,19.012,18.605,19.012c10.259,0,18.606-8.528,18.606-19.012c0-1.42-0.156-3.701-0.498-8.699l-0.03-0.432
		c-0.194-2.815-0.433-6.293-0.679-10.223h7.03c-0.909,11.858-0.919,19.278-0.919,19.354c0,10.483,8.346,19.012,18.605,19.012
		c10.259,0,18.605-8.528,18.605-19.012c0-1.416-0.154-3.697-0.498-8.699l-0.035-0.516c-0.191-2.796-0.43-6.246-0.672-10.139h8.129
		c-0.908,11.857-0.92,19.278-0.92,19.354c0,10.483,8.348,19.012,18.604,19.012c10.262,0,18.605-8.528,18.605-19.012
		c0-1.415-0.16-3.822-0.498-8.699c-0.188-2.719-0.439-6.405-0.707-10.654h8.904v71.252H80.479v-14.328
		c0-1.195-0.969-2.162-2.163-2.162s-2.164,0.967-2.164,2.162v14.76c0,2.146,1.747,3.895,3.895,3.895h139.906
		c2.148,0,3.895-1.748,3.895-3.895v-72.117C223.848,145.688,222.102,143.942,219.953,143.942z"/>
	<path display="inline" fill="#FF7F00" d="M107.884,179.135c6.124,0,11.106-5.164,11.106-11.512c0-1.193-0.191-3.975-0.482-8.186
		c-0.736-10.685-2.107-30.569-2.411-54.443c-0.015-1.185-0.98-2.135-2.163-2.135c-0.01,0-0.019,0-0.029,0
		c-1.194,0.016-2.15,0.996-2.135,2.191c0.305,23.995,1.682,43.96,2.421,54.687c0.274,3.974,0.473,6.844,0.473,7.888
		c0,3.963-3.041,7.187-6.779,7.187c-3.737,0-6.778-3.224-6.778-7.187c0-0.429,0.313-39.984,10.623-77.434
		c-0.015,1.86-0.021,3.73-0.021,5.604c0,1.194,0.97,2.162,2.164,2.162h0.001c1.194,0,2.163-0.969,2.162-2.165
		c-0.002-5.69,0.064-11.346,0.198-16.808c0.034-1.378-0.918-2.551-2.265-2.789c-1.334-0.234-2.618,0.533-3.055,1.828
		c-13.752,40.859-14.136,89.125-14.136,89.602C96.778,173.971,101.76,179.135,107.884,179.135z"/>
	<path display="inline" fill="#FF7F00" d="M193.217,179.135c6.124,0,11.105-5.164,11.105-11.512c0-1.193-0.191-3.975-0.482-8.186
		c-1.016-14.736-3.13-45.402-2.273-80.458c0.033-1.378-0.92-2.55-2.266-2.788c-1.334-0.233-2.617,0.533-3.055,1.828
		c-4.366,12.976-7.836,28.011-10.312,44.689c-0.177,1.182,0.641,2.282,1.821,2.458c1.181,0.172,2.282-0.64,2.458-1.822
		c1.779-11.977,4.072-23.082,6.848-33.155c-0.23,30.441,1.553,56.35,2.463,69.544c0.273,3.974,0.475,6.844,0.475,7.888
		c0,3.963-3.042,7.187-6.779,7.187c-3.736,0-6.777-3.224-6.777-7.187c0-3.974,0.455-18.02,2.537-35.101
		c0.145-1.187-0.701-2.266-1.888-2.411c-1.188-0.144-2.265,0.7-2.407,1.886c-2.108,17.295-2.57,31.582-2.57,35.625
		C182.109,173.971,187.094,179.135,193.217,179.135z"/>
	<g display="inline">
		<path fill="#FF7F00" d="M150,179.135c6.125,0,11.105-5.164,11.105-11.512c0-1.193-0.19-3.975-0.481-8.186
			c-1.015-14.736-3.13-45.402-2.274-80.458c0.035-1.378-0.918-2.55-2.264-2.788c-1.336-0.233-2.619,0.533-3.055,1.828
			c-13.753,40.859-14.137,89.125-14.137,89.602C138.895,173.971,143.876,179.135,150,179.135z M153.844,90.194
			c-0.232,30.441,1.555,56.348,2.463,69.542c0.274,3.973,0.473,6.843,0.473,7.887c0,3.963-3.041,7.186-6.777,7.186
			c-3.737,0-6.778-3.223-6.778-7.186C143.222,167.195,143.537,127.643,153.844,90.194z"/>
	</g>
	<path display="inline" fill="#FF7F00" d="M99.663,195.289c0,1.195-0.97,2.164-2.164,2.164s-2.163-0.969-2.163-2.164
		s0.969-2.163,2.163-2.163S99.663,194.094,99.663,195.289z"/>
	<path display="inline" fill="#FF7F00" d="M113.486,210.482c0,1.192-0.969,2.164-2.163,2.164c-1.195,0-2.164-0.972-2.164-2.164
		c0-1.195,0.969-2.164,2.164-2.164C112.518,208.318,113.486,209.287,113.486,210.482z"/>
	<path display="inline" fill="#FF7F00" d="M130.849,191.251c0,1.194-0.969,2.163-2.163,2.163s-2.164-0.969-2.164-2.163
		c0-1.196,0.97-2.163,2.164-2.163S130.849,190.055,130.849,191.251z"/>
	<path display="inline" fill="#FF7F00" d="M142.387,207.62c0,1.196-0.969,2.163-2.164,2.163c-1.195,0-2.163-0.967-2.163-2.163
		c0-1.194,0.968-2.163,2.163-2.163C141.418,205.457,142.387,206.426,142.387,207.62z"/>
	<path display="inline" fill="#FF7F00" d="M169.752,206.562c0,1.193-0.969,2.164-2.162,2.164c-1.195,0-2.164-0.971-2.164-2.164
		c0-1.195,0.969-2.162,2.164-2.162C168.783,204.4,169.752,205.367,169.752,206.562z"/>
	<path display="inline" fill="#FF7F00" d="M161.105,195.289c0,1.195-0.969,2.164-2.162,2.164c-1.195,0-2.164-0.969-2.164-2.164
		s0.969-2.163,2.164-2.163C160.137,193.126,161.105,194.094,161.105,195.289z"/>
	<path display="inline" fill="#FF7F00" d="M189.527,211.273c0,1.193-0.967,2.164-2.162,2.164s-2.164-0.971-2.164-2.164
		s0.969-2.162,2.164-2.162S189.527,210.08,189.527,211.273z"/>
	<path display="inline" fill="#FF7F00" d="M175.486,186.52c0,1.194-0.971,2.164-2.164,2.164c-1.195,0-2.164-0.97-2.164-2.164
		c0-1.193,0.969-2.164,2.164-2.164S175.486,185.324,175.486,186.52z"/>
	<path display="inline" fill="#FF7F00" d="M202.375,195.289c0,1.195-0.968,2.164-2.163,2.164c-1.194,0-2.163-0.969-2.163-2.164
		s0.969-2.163,2.163-2.163C201.407,193.126,202.375,194.094,202.375,195.289z"/>
</g>
<g display="none">
	<path display="inline" fill="#FF7F00" d="M126.225,183.782c-2.567-0.933-5.375-0.884-7.904,0.141
		c-1.108,0.448-1.642,1.708-1.194,2.816c0.448,1.106,1.71,1.641,2.817,1.192c1.537-0.621,3.242-0.652,4.8-0.084
		c3.469,1.262,5.264,5.11,4.001,8.582l-3.401,9.344c-0.613,1.683-1.841,3.021-3.462,3.778c-1.621,0.757-3.439,0.834-5.119,0.224
		c-3.469-1.265-5.264-5.11-4.002-8.58l2.456-6.748c0.408-1.124-0.17-2.363-1.292-2.772c-1.124-0.407-2.364,0.171-2.773,1.292
		l-2.456,6.748c-2.079,5.71,0.876,12.049,6.586,14.127c1.231,0.446,2.505,0.67,3.776,0.67c1.587,0,3.169-0.348,4.651-1.039
		c2.669-1.244,4.692-3.451,5.699-6.218l3.402-9.347C134.89,192.197,131.935,185.861,126.225,183.782L126.225,183.782z"/>
	<path display="inline" fill="#FF7F00" d="M198.551,214.4c1.248,0,2.518-0.213,3.758-0.666c2.77-1.006,4.979-3.029,6.219-5.697
		c1.246-2.668,1.375-5.662,0.369-8.428l-3.4-9.349c-1.008-2.767-3.031-4.974-5.699-6.219c-2.666-1.244-5.66-1.375-8.426-0.367
		c-2.77,1.007-4.977,3.029-6.221,5.697c-1.246,2.67-1.375,5.662-0.367,8.428l3.4,9.349C189.811,211.619,194.047,214.4,198.551,214.4
		z M189.07,191.204c0.756-1.622,2.098-2.851,3.777-3.463c0.748-0.273,1.521-0.407,2.295-0.407c0.965,0,1.924,0.21,2.824,0.631
		c1.619,0.756,2.852,2.098,3.463,3.778l3.4,9.347c0.609,1.68,0.529,3.497-0.227,5.119c-0.756,1.62-2.096,2.852-3.775,3.461
		c-3.471,1.266-7.316-0.529-8.58-4.001l-3.4-9.347C188.234,194.643,188.314,192.824,189.07,191.204L189.07,191.204z"/>
	<path display="inline" fill="#FF7F00" d="M214.256,187.073c-1.078-2.964-2.771-5.563-5.035-7.73
		c-0.863-0.825-2.232-0.796-3.057,0.067c-0.826,0.861-0.799,2.23,0.064,3.057c1.777,1.704,3.111,3.754,3.963,6.088l3.4,9.346
		c3.021,8.302-1.273,17.513-9.574,20.533c-4.021,1.463-8.369,1.272-12.248-0.535c-3.879-1.809-6.82-5.02-8.283-9.041l-19.473-53.5
		c-1.004-2.75-3.408-4.803-6.281-5.359l-2.459-0.477l-7.959-21.866c-0.408-1.123-1.65-1.701-2.772-1.293
		c-1.123,0.409-1.702,1.65-1.292,2.772l4.995,13.723l-10.25,28.165c-1.262,3.471-5.112,5.266-8.581,4.002
		c-10.541-3.838-22.25,1.611-26.102,12.146l-3.58,9.791c-1.822,4.98-1.592,10.375,0.646,15.186
		c2.238,4.812,6.216,8.457,11.202,10.271c2.015,0.793,4.954,1.423,7.489,1.412c2.937,0,5.861-0.64,8.595-1.909
		c4.94-2.297,8.685-6.382,10.544-11.507c6.606-18.204,16.549-45.529,19.438-53.47c0.248-0.684,0.668-1.27,1.211-1.721
		c0.481,0.438,0.865,0.986,1.094,1.614l19.471,53.5c1.859,5.104,5.596,9.187,10.521,11.479c2.732,1.275,5.656,1.918,8.586,1.918
		c2.348,0,4.701-0.41,6.971-1.237c10.543-3.837,15.998-15.535,12.16-26.076L214.256,187.073z M134.141,208.938
		c-1.464,4.031-4.412,7.25-8.301,9.058c-3.769,1.805-8.694,1.981-12.781,0.356c-3.898-1.418-7.009-4.271-8.759-8.031
		c-1.75-3.762-1.93-7.979-0.505-11.875l3.58-9.791c3.034-8.299,12.257-12.592,20.56-9.567c5.71,2.077,12.047-0.877,14.125-6.587
		l8.487-23.317l0.781,2.143c0.365,0.992,1.562,2.253,3.099,2.438c-0.34,0.526-0.626,1.096-0.846,1.699
		C150.689,163.402,140.748,190.729,134.141,208.938L134.141,208.938z"/>
	<path display="inline" fill="#FF7F00" d="M160.154,140.576c0-1.195-0.969-2.163-2.162-2.163h-0.004
		c-1.195,0-2.162,0.968-2.162,2.163c0,1.194,0.971,2.163,2.166,2.163C159.186,142.739,160.154,141.77,160.154,140.576z"/>
	<path display="inline" fill="#FF7F00" d="M218.785,89.007h-13.484c-1.195,0-2.164,0.968-2.164,2.163
		c0,1.195,0.969,2.163,2.164,2.163h13.484c0.396,0,0.721,0.323,0.721,0.721v8.652c0,0.398-0.324,0.722-0.721,0.722h-63.75
		l-3.674-10.095h43.852c1.193,0,2.162-0.968,2.162-2.163c0-1.195-0.969-2.163-2.162-2.163h-15c-0.08-4.378-1.691-8.646-4.588-11.983
		c-0.502-0.578-1.273-0.847-2.027-0.708s-1.377,0.667-1.639,1.387l-4.115,11.305h-18.057l-4.153-11.411
		c-0.251-0.69-0.835-1.206-1.55-1.369c-0.715-0.165-1.465,0.046-1.991,0.559l-6.452,6.279c-1.729,1.683-2.973,3.731-3.691,5.942
		H81.216c-2.783,0-5.047,2.264-5.047,5.047v8.652c0,2.783,2.264,5.047,5.047,5.047h54.252l4.329,11.892
		c0.409,1.123,1.649,1.701,2.772,1.292s1.701-1.65,1.292-2.773l-7.69-21.128c-1.379-3.791-0.403-8.058,2.488-10.871l4.053-3.946
		l32.821,90.173c1.008,2.768,3.031,4.976,5.699,6.219c1.479,0.69,3.062,1.039,4.648,1.039c1.271,0,2.549-0.224,3.775-0.67
		c2.812-1.023,5.844-1.244,8.758-0.631c1.168,0.245,2.314-0.502,2.562-1.673c0.246-1.169-0.502-2.315-1.672-2.562
		c-3.703-0.777-7.553-0.502-11.125,0.799c-1.684,0.611-3.498,0.531-5.119-0.225s-2.852-2.099-3.463-3.777l-10.941-30.064
		l7.76-33.095h42.369c2.781,0,5.047-2.264,5.047-5.047v-8.652C223.832,91.271,221.566,89.007,218.785,89.007L218.785,89.007z
		 M174.547,83.242c0.836,1.802,1.297,3.768,1.344,5.765h-3.441L174.547,83.242z M81.216,103.427c-0.397,0-0.722-0.324-0.722-0.722
		v-8.652c0-0.397,0.324-0.721,0.722-0.721h50.014c-0.024,1.738,0.262,3.494,0.877,5.184l1.787,4.911H81.216z M161.021,107.753
		l-2.205,6.06l-2.205-6.06H161.021z M165.953,133.423l-4.836-13.286l4.508-12.384h6.348L165.953,133.423z"/>
</g>
<g display="none">
	<g display="inline">
		<path fill="#FF7F00" d="M194.102,136.474c0-24.317-19.783-44.101-44.102-44.101c-58.506,2.422-58.49,85.788,0,88.202
			C174.316,180.575,194.102,160.791,194.102,136.474z M150,174.693c-21.075,0-38.221-17.146-38.221-38.219
			c2.099-50.705,74.351-50.691,76.442,0C188.221,157.549,171.075,174.693,150,174.693z"/>
		<path fill="#FF7F00" d="M162.997,142.757c-0.197-0.049-0.772-0.193-0.974-0.277c-0.181-0.185-0.606-0.813-0.842-1.158
			c-5.188-7.837-17.182-7.835-22.366,0c-0.236,0.345-0.664,0.974-0.843,1.158c-0.199,0.083-0.775,0.228-0.973,0.277
			c-11.349,3.076-9.329,19.445,2.414,19.695h21.169C172.335,162.198,174.34,145.828,162.997,142.757z M160.584,156.573h-21.169
			c-4.858-0.13-5.649-6.805-0.988-8.112c2.87-0.717,3.601-1.409,5.25-3.829c2.936-4.434,9.712-4.433,12.646,0
			c1.65,2.42,2.382,3.112,5.25,3.829C166.236,149.77,165.438,156.445,160.584,156.573z"/>
		<path fill="#FF7F00" d="M150,131.5c11.755-0.148,11.75-20.86,0-21.005c-4.383,0-8.82,3.607-8.82,10.503
			c0,3.059,0.887,5.689,2.564,7.608C145.354,130.446,147.633,131.5,150,131.5L150,131.5z M150,116.375
			c2.173,0.139,2.918,2.347,2.939,4.622c0.024,6.191-5.904,6.191-5.879,0C147.06,117.805,148.536,116.375,150,116.375L150,116.375z"
			/>
		<path fill="#FF7F00" d="M132.062,139.889c2.285-0.612,4.215-2.222,5.293-4.416c1.124-2.287,1.3-5.058,0.508-8.013
			c-0.791-2.955-2.329-5.266-4.446-6.685c-2.03-1.361-4.506-1.791-6.792-1.177C115.484,122.629,120.43,142.714,132.062,139.889
			L132.062,139.889z M126.504,130.505c-0.417-1.559-0.381-2.907,0.105-3.897c0.335-0.682,0.881-1.153,1.538-1.329
			c1.721-0.355,3.199,0.792,4.036,3.705c0.827,3.084-0.229,4.847-1.643,5.226c-0.656,0.177-1.366,0.04-1.997-0.383
			C127.627,133.213,126.922,132.064,126.504,130.505z"/>
		<path fill="#FF7F00" d="M177.029,121.716c-2.086-2.085-5.031-2.874-7.881-2.112c-3.36,0.9-5.918,3.765-7.015,7.856
			c-1.097,4.093-0.313,7.851,2.146,10.311c1.562,1.562,3.605,2.396,5.73,2.396c0.713,0,1.434-0.094,2.148-0.286
			c3.361-0.9,5.917-3.764,7.014-7.856C180.271,127.933,179.488,124.177,177.029,121.716z M173.495,130.505
			c-0.538,2.008-1.579,3.357-2.854,3.698c-0.798,0.213-1.619-0.007-2.201-0.59c-0.935-0.936-1.162-2.622-0.623-4.63v-0.001
			c0.537-2.008,1.578-3.356,2.854-3.699c0.782-0.211,1.617,0.003,2.2,0.59C173.807,126.809,174.033,128.497,173.495,130.505z"/>
		<path fill="#FF7F00" d="M210.854,201.902L194.802,174.1l4.71-2.752c3.326-1.945,5.403-5.564,5.418-9.44l0.06-10.683l5.231-9.178
			c1.988-3.375,2.023-7.583,0.088-10.993l-5.32-9.331l-0.053-9.885c0.279-4.14-1.84-8.147-5.426-10.24l-9.236-5.399l-5.396-9.237
			c-1.945-3.328-5.564-5.404-9.441-5.419l-10.683-0.057l-9.177-5.233c-3.375-1.988-7.583-2.024-10.995-0.088l-9.331,5.321
			l-9.884,0.053c-4.143-0.284-8.147,1.839-10.24,5.424l-5.398,9.236l-9.238,5.399c-3.327,1.946-5.404,5.566-5.418,9.442
			l-0.057,10.682L89.78,130.9c-1.989,3.376-2.025,7.583-0.089,10.994l5.321,9.331l0.053,9.885c-0.28,4.141,1.839,8.147,5.424,10.24
			l4.708,2.752L89.147,201.9c-0.756,1.308-1.044,2.858-0.81,4.371c0.564,3.643,3.984,6.146,7.631,5.582l11.589-1.812l4.098,10.606
			c0.513,1.57,1.58,2.89,3.015,3.718c3.142,1.827,7.288,0.772,9.143-2.449l16.061-27.817l4.55,2.594
			c1.714,1.012,3.644,1.517,5.574,1.517c1.87,0,3.742-0.476,5.421-1.428l4.704-2.683l16.062,27.817
			c2.906,5.017,10.392,4.178,12.156-1.269l4.1-10.606l11.593,1.812c1.766,0.271,3.528-0.156,4.97-1.211
			c1.441-1.057,2.385-2.606,2.658-4.371C211.896,204.76,211.607,203.208,210.854,201.902L210.854,201.902z M118.722,218.979
			c-0.225,0.389-0.722,0.521-1.11,0.297c-0.228-0.133-0.327-0.324-0.37-0.465c-0.02-0.064-0.043-0.131-0.068-0.194l-4.984-12.901
			c-0.499-1.291-1.83-2.061-3.196-1.845l-13.927,2.175c-0.439,0.064-0.849-0.232-0.917-0.671c-0.038-0.243,0.027-0.422,0.089-0.529
			l15.856-27.464l5.03,8.605c1.946,3.326,5.565,5.402,9.442,5.418l10.043,0.055L118.722,218.979z M152.512,191.671
			c-1.582,0.897-3.542,0.879-5.113-0.051c-0.014-0.007-0.028-0.017-0.042-0.022l-9.866-5.627c-0.439-0.25-0.935-0.384-1.44-0.386
			l-11.457-0.062c-1.811-0.008-3.493-0.969-4.394-2.508l-5.788-9.901c-0.255-0.438-0.618-0.8-1.055-1.056l-9.903-5.787
			c-1.687-0.984-2.675-2.879-2.518-4.828c0.007-0.082,0.01-0.166,0.009-0.25l-0.057-10.771c-0.003-0.506-0.136-1.002-0.386-1.441
			l-5.701-9.996c-0.898-1.583-0.88-3.542,0.05-5.112c0.008-0.014,0.016-0.027,0.024-0.041l5.626-9.866
			c0.25-0.439,0.383-0.936,0.386-1.441l0.061-11.457c0.007-1.809,0.968-3.493,2.506-4.393l9.902-5.788
			c0.437-0.255,0.8-0.619,1.056-1.055l5.788-9.904c0.981-1.688,2.894-2.677,4.827-2.518c0.083,0.007,0.171,0.009,0.251,0.009
			l10.772-0.057c0.506-0.002,1.002-0.135,1.441-0.386l9.995-5.7c1.584-0.899,3.543-0.879,5.114,0.05
			c0.014,0.008,0.026,0.016,0.041,0.024l9.864,5.626c0.438,0.25,0.937,0.384,1.44,0.386l11.457,0.061
			c1.811,0.007,3.494,0.968,4.395,2.507l5.787,9.902c0.255,0.437,0.619,0.8,1.057,1.055l9.902,5.789
			c1.688,0.984,2.675,2.879,2.518,4.827c-0.006,0.083-0.01,0.167-0.009,0.251l0.058,10.772c0.002,0.505,0.138,1.001,0.388,1.44
			l5.698,9.995c0.9,1.584,0.882,3.542-0.049,5.112c-0.01,0.014-0.018,0.028-0.023,0.042l-5.626,9.866
			c-0.25,0.439-0.386,0.935-0.388,1.441l-0.061,11.456c-0.008,1.81-0.969,3.493-2.507,4.394l-9.901,5.789
			c-0.438,0.254-0.802,0.617-1.057,1.056l-5.788,9.901c-0.983,1.688-2.88,2.674-4.827,2.521c-0.084-0.007-0.168-0.011-0.251-0.011
			l-10.771,0.059c-0.506,0.002-1.002,0.137-1.441,0.387L152.512,191.671z M205.852,205.371c-0.043,0.271-0.197,0.436-0.319,0.525
			c-0.121,0.09-0.323,0.187-0.595,0.146l-13.931-2.175c-1.364-0.215-2.696,0.554-3.196,1.845l-4.982,12.901
			c-0.025,0.062-0.049,0.13-0.068,0.195c-0.043,0.141-0.141,0.332-0.367,0.465c-0.391,0.224-0.889,0.091-1.111-0.299l-15.889-27.521
			l9.246-0.05c4.141,0.281,8.146-1.84,10.238-5.424l5.028-8.604l15.856,27.465C205.823,204.95,205.889,205.128,205.852,205.371
			L205.852,205.371z"/>
	</g>
</g>
<g display="none">
	<g display="inline">
		<path fill="#FF7F00" d="M194.061,89.879c-11.974-11.928-27.61-18.462-44.006-18.399c-33.629-0.819-63.551,29.999-62.984,63.451
			c0,17.782,9.214,40.333,25.281,61.867c11.406,15.286,28.066,31.738,37.692,31.738c9.625,0,26.286-16.452,37.689-31.738
			C215.023,159.761,224.488,121.962,194.061,89.879L194.061,89.879z M182.814,193.13c-7.92,10.492-22.769,27.534-32.773,29.271
			c-2.019,0-6.572-2.064-13.297-7.864c-21.255-17.761-44.667-56.865-43.541-79.605c-0.506-30.062,26.377-57.951,56.639-57.316h0.42
			c30.239-0.627,57.126,27.26,56.617,57.316C206.88,151.42,198.107,172.632,182.814,193.13L182.814,193.13z"/>
		<path fill="#FF7F00" d="M150.042,83.75c-27.958,0-50.704,22.745-50.704,50.704c2.785,67.264,98.633,67.245,101.408-0.001
			C200.745,106.496,177.999,83.75,150.042,83.75z M150.042,179.021c-24.576,0-44.569-19.994-44.569-44.567
			c2.448-59.127,86.698-59.11,89.136,0C194.609,159.027,174.616,179.021,150.042,179.021z"/>
		<path fill="#FF7F00" d="M163.604,141.009c-0.207-0.052-0.81-0.203-1.018-0.289c-0.188-0.193-0.633-0.849-0.879-1.209
			c-5.41-8.176-17.923-8.174-23.333,0c-0.246,0.361-0.692,1.016-0.879,1.209c-0.208,0.086-0.809,0.237-1.016,0.289
			c-11.841,3.209-9.733,20.288,2.519,20.55h22.086C173.344,161.294,175.438,144.213,163.604,141.009L163.604,141.009z
			 M161.084,155.424h-22.085c-5.07-0.134-5.895-7.1-1.032-8.463c2.994-0.747,3.757-1.47,5.478-3.996
			c3.062-4.625,10.132-4.624,13.192,0c1.723,2.526,2.483,3.249,5.479,3.996C166.98,148.327,166.148,155.291,161.084,155.424z"/>
		<path fill="#FF7F00" d="M150.042,129.265c12.265-0.155,12.258-21.765,0-21.916c-4.573,0-9.203,3.764-9.203,10.958
			c0,3.191,0.925,5.937,2.676,7.938C145.194,128.164,147.572,129.265,150.042,129.265z M150.042,113.483
			c0.71,0,1.386,0.329,1.908,0.925c2.114,2.474,1.315,8.802-1.908,8.722C145.936,123.17,145.938,113.441,150.042,113.483z"/>
		<path fill="#FF7F00" d="M131.327,138.017c4.417-1.183,7.916-6.017,6.053-12.966c-1.861-6.949-7.308-9.387-11.725-8.203
			c-4.417,1.182-7.915,6.017-6.053,12.965C121.538,136.533,126.274,139.173,131.327,138.017z M125.527,128.226
			c-0.861-3.217,0.24-5.057,1.715-5.452c1.795-0.37,3.338,0.827,4.212,3.864c0.861,3.218-0.241,5.058-1.715,5.454
			C128.264,132.486,126.39,131.444,125.527,128.226z"/>
		<path fill="#FF7F00" d="M174.428,116.848c-11.893-3.024-17.471,17.853-5.673,21.169C180.902,140.963,186.043,120,174.428,116.848z
			 M174.555,128.226c-0.861,3.218-2.734,4.26-4.211,3.866c-1.475-0.396-2.578-2.235-1.716-5.454
			c0.863-3.218,2.738-4.259,4.212-3.864C174.314,123.169,175.417,125.009,174.555,128.226z"/>
	</g>
</g>
<g display="none">
	<path display="inline" fill="#FF7F00" d="M206.834,95.241l-7.396-4.534c-2.916-5.735-8.521-9.807-14.929-10.751l-1.737-0.256
		l-0.039-10.042c-0.008-1.951-1.393-3.625-3.308-3.998c-1.915-0.374-3.827,0.659-4.565,2.464l-5.062,12.358
		c-0.069,0.173-0.123,0.349-0.169,0.526c-8.832,3.592-15.074,12.266-15.074,22.373v7.12c0,5.26-4.28,9.54-9.541,9.54h-2.731
		c-21.792,0-39.523,17.73-39.523,39.523v29.229H85.702c-4.413,0-8.002-3.59-8.002-8.002s3.59-8.002,8.002-8.002h2.036
		c2.258,0,4.088-1.83,4.088-4.09c0-2.259-1.83-4.089-4.088-4.089h-2.036c-8.92,0-16.178,7.259-16.178,16.181
		c0,8.92,7.258,16.179,16.178,16.179l72.618,0.004c3.559,0,6.77-1.507,9.037-3.91c2.664,2.426,6.203,3.908,10.082,3.908l5.453,0.002
		c6.765,0,12.267-5.504,12.267-12.269c0-5.33-3.418-9.877-8.179-11.563v-13.354c6.384-8.914,9.886-17.115,9.886-30.75v-10.97
		l8.2-5.964c0.828-0.603,1.398-1.493,1.603-2.497l2.036-10.07C209.045,97.855,208.297,96.139,206.834,95.241L206.834,95.241z
		 M198.968,106.428l-8.597,6.253c-1.059,0.77-1.684,1.998-1.684,3.307v13.052c0,9.665-3.217,19.231-9.055,26.938
		c-0.539,0.711-0.83,1.576-0.83,2.47v18.084c0,2.258,1.83,4.088,4.09,4.088c2.254,0,4.088,1.834,4.088,4.09
		c0,2.254-1.834,4.088-4.088,4.088h-5.453c-3.758-0.002-6.812-3.06-6.812-6.815V155c0-2.258-1.83-4.09-4.09-4.09
		c-2.258,0-4.088,1.832-4.088,4.09v17.822c-1.293-0.457-2.682-0.707-4.129-0.707h-5.223v-7.219c0-11.523-7.792-21.554-18.947-24.393
		c-2.188-0.556-4.414,0.766-4.971,2.953c-0.557,2.188,0.766,4.414,2.955,4.971c7.528,1.916,12.784,8.688,12.784,16.469v11.307
		c0,2.258,1.832,4.088,4.09,4.088h9.312c2.346,0,4.254,1.908,4.254,4.256c0,2.346-1.908,4.252-4.254,4.252h-8.851
		c-0.017,0-0.035-0.002-0.052-0.002h-38.48v-29.23c0-17.284,14.062-31.345,31.347-31.345h2.73c9.77,0,17.716-7.948,17.716-17.717
		v-7.12c0-8.803,7.164-15.964,15.965-15.964h0.017h0.335l4.27,0.629c4.061,0.599,7.576,3.318,9.174,7.098
		c0.332,0.786,0.9,1.448,1.629,1.894l6.006,3.682L198.968,106.428z"/>
</g>
<g display="none">
	<path id="XMLID_1234_" display="inline" fill="#FF7F00" d="M222.732,136.15c0-9.424-4.103-18.349-11.252-24.488
		c-1.313-1.128-2.066-2.769-2.066-4.5c0-2.333,1.375-4.458,3.504-5.412c2.171-0.974,3.834-2.734,4.68-4.958
		c0.848-2.224,0.777-4.644-0.195-6.814c-0.973-2.171-2.733-3.833-4.957-4.681c-2.226-0.848-4.646-0.777-6.814,0.196
		c-8.521,3.822-14.031,12.328-14.031,21.668c0,6.934,3.019,13.501,8.278,18.017c3.204,2.75,5.041,6.75,5.041,10.971
		c0,7.732-2.812,15.031-7.948,20.731c-2.56-2.606-5.615-4.765-9.068-6.307l-11.959-5.338c-1.435-0.64-3.113,0.004-3.754,1.437
		c-0.64,1.433,0.004,3.113,1.437,3.752l11.961,5.338c8.64,3.856,14.222,12.461,14.222,21.922c0,13.238-10.77,24.008-24.007,24.008
		h-25.459c1.173-3.309,4.331-5.683,8.036-5.683h7.755c1.228,0,2.315-0.786,2.698-1.952c0.384-1.166-0.023-2.445-1.014-3.176
		c-3.366-2.482-5.299-6.303-5.299-10.479c0-3.7,1.584-7.237,4.348-9.707c1.17-1.045,1.271-2.84,0.226-4.012
		c-1.045-1.168-2.841-1.271-4.012-0.226c-3.968,3.545-6.242,8.627-6.242,13.944c0,3.418,0.953,6.742,2.679,9.615l-4.045-0.867
		c-11.266-2.42-21.65-8.486-29.296-17.104v-5.071c0.9-0.617,1.772-1.277,2.612-1.982c1.203-1.01,1.36-2.801,0.353-4.002
		c-1.009-1.202-2.801-1.36-4.002-0.352c-5.168,4.334-11.73,6.721-18.475,6.721H82.949v-0.963c0-3.231,2.629-5.858,5.86-5.858h16.907
		c5.866,0,11.384-2.864,14.762-7.66c0.903-1.282,0.596-3.055-0.687-3.958s-3.056-0.596-3.959,0.688
		c-1.916,2.721-4.84,4.531-8.071,5.072c-0.062-0.873-0.098-1.751-0.098-2.623c0-8.303,2.452-16.331,7.09-23.217l3.091-4.592
		l1.787,1.027c1.36,0.782,3.098,0.312,3.879-1.048c0.781-1.36,0.312-3.096-1.049-3.878l-12.966-7.452
		c-0.009-0.004-0.017-0.009-0.025-0.014c-1.095-0.614-1.835-1.678-2.033-2.917l-0.696-4.365l7.775-4.387
		c0.201-0.113,0.388-0.252,0.556-0.411l1.612-1.524c2.876-2.723,7.128-3.249,10.58-1.311c0.657,0.369,1.433,0.462,2.159,0.258
		c0.725-0.204,1.341-0.688,1.708-1.345l5.01-8.922c3.608,3.936,5.412,9.322,4.797,14.713l-2.473,21.626
		c-0.078,0.689,0.099,1.384,0.496,1.953c3.196,4.562,7.045,8.609,11.438,12.029c0.519,0.404,1.133,0.6,1.744,0.6
		c0.846,0,1.685-0.376,2.244-1.096c0.963-1.238,0.74-3.023-0.498-3.986c-3.667-2.855-6.911-6.196-9.654-9.941l2.347-20.539
		c0.971-8.484-2.654-16.959-9.46-22.119c-0.653-0.496-1.491-0.684-2.294-0.517c-0.805,0.167-1.497,0.675-1.898,1.391l-5.495,9.788
		c-5.055-1.671-10.668-0.484-14.657,3.292l-1.357,1.286l-9.191,5.187c-1.034,0.583-1.597,1.749-1.409,2.921l1.007,6.315
		c0.473,2.959,2.239,5.5,4.85,6.97l6.229,3.58l-2.864,4.255c-5.272,7.828-8.06,16.954-8.06,26.39c0,0.932,0.031,1.865,0.093,2.801
		H88.81c-6.364,0-11.542,5.179-11.542,11.541v1.92c0,2.604,2.119,4.725,4.725,4.725h24.669c0.05,0,0.101-0.001,0.15-0.001
		c0.778,2.998,1.18,6.079,1.18,9.188v8.141c-5.722,0.506-10.226,5.324-10.226,11.176c0,3.212,2.613,5.826,5.825,5.826h14.45
		c4.484,0,8.133-3.648,8.133-8.134v-19.099c6.652,6.107,14.669,10.695,23.312,13.323c-3.237,2.606-5.314,6.599-5.314,11.066
		c0,1.569,1.272,2.842,2.84,2.842H175.8c16.371,0,29.688-13.319,29.688-29.688c0-1.287-0.09-2.562-0.252-3.815l3.197-3.195
		C217.652,161.452,222.732,149.192,222.732,136.15L222.732,136.15z M118.041,201.691h-14.45c-0.078,0-0.144-0.063-0.144-0.144
		c0-3.054,2.485-5.537,5.538-5.537h1.847c1.569,0,2.841-1.271,2.841-2.841v-10.938c0-3.274-0.379-6.523-1.128-9.698
		c2.739-0.476,5.408-1.28,7.947-2.394v29.1C120.492,200.593,119.394,201.691,118.041,201.691L118.041,201.691z M200.577,161.348
		c6.47-6.839,10.022-15.744,10.022-25.197c0-5.88-2.561-11.451-7.022-15.282c-4.002-3.437-6.298-8.432-6.298-13.707
		c0-7.106,4.191-13.576,10.674-16.484c0.787-0.352,1.663-0.378,2.469-0.071c0.807,0.307,1.443,0.909,1.795,1.695
		c0.354,0.786,0.379,1.663,0.07,2.468c-0.307,0.805-0.907,1.442-1.693,1.795c-4.169,1.869-6.861,6.029-6.861,10.597
		c0,3.391,1.476,6.602,4.047,8.812c5.894,5.058,9.271,12.412,9.271,20.177c0,11.523-4.486,22.356-12.637,30.506l-0.766,0.766
		C202.857,165.281,201.826,163.243,200.577,161.348z"/>
	<path id="XMLID_1261_" display="inline" fill="#FF7F00" d="M120.286,102.923c-0.527,0.528-0.833,1.261-0.833,2.008
		c0,0.75,0.306,1.483,0.833,2.008c0.528,0.532,1.262,0.833,2.008,0.833c0.748,0,1.481-0.301,2.01-0.833
		c0.527-0.528,0.831-1.261,0.831-2.008c0-0.748-0.304-1.478-0.831-2.008c-0.528-0.529-1.262-0.833-2.01-0.833
		C121.548,102.091,120.814,102.395,120.286,102.923z"/>
	<path id="XMLID_1301_" display="inline" fill="#FF7F00" d="M163.107,145.461c0.748,0,1.48-0.301,2.01-0.832
		c0.527-0.528,0.832-1.258,0.832-2.008c0-0.747-0.303-1.48-0.832-2.008c-0.529-0.529-1.262-0.833-2.01-0.833
		c-0.75,0-1.479,0.303-2.008,0.833c-0.531,0.528-0.832,1.261-0.832,2.008c0,0.748,0.301,1.48,0.832,2.008
		C161.629,145.16,162.361,145.461,163.107,145.461z"/>
</g>
<g display="none">
	<path display="inline" fill="#FF7F00" d="M208.309,89.724h-14.045l-10.6-10.598c-0.682-0.682-1.604-1.063-2.566-1.063h-11.666
		c-12.736,0-23.061,10.303-23.061,23.061v0.005c0,8.753-3.963,16.855-10.871,22.228c-2.249,1.749-4.624,3.595-6.956,5.41
		c-5.138,3.997-17.159,15.55-17.159,35.083v17.56c-2.39-1.482-5.149-2.278-8.032-2.278H91.691c-2.005,0-3.629,1.625-3.629,3.63
		v3.888c0,8.445,6.832,15.291,15.291,15.291h77.745c2.004,0,3.629-1.625,3.629-3.629v-7.774c0-5.021-3.26-9.292-7.774-10.812
		v-10.647c7.339-5.627,11.662-14.328,11.662-23.654v-29.002h8.032c8.433,0,15.291-6.859,15.291-15.291v-7.775
		C211.938,91.348,210.312,89.724,208.309,89.724z M95.32,186.646v-0.258h8.033c4.429,0,8.032,3.58,8.032,8.031v0.26h-8.032
		C98.924,194.68,95.32,191.098,95.32,186.646z M204.68,101.127c0,4.43-3.604,8.032-8.033,8.032h-11.66
		c-2.004,0-3.629,1.625-3.629,3.629v32.631c0,7.56-3.756,14.577-10.047,18.771c-1.01,0.674-1.617,1.808-1.617,3.021v15.55
		c0,2.004,1.627,3.629,3.629,3.629c2.287,0,4.146,1.859,4.146,4.146v4.146h-12.525c-0.564-2.938-1.801-5.642-3.543-7.938
		c0-0.032,0.004-0.063,0.004-0.097v-19.436c0-2.004-1.625-3.629-3.629-3.629s-3.629,1.625-3.629,3.629v13.688
		c-1.389-0.642-2.861-1.127-4.404-1.424v-0.607c0-10.477-8.46-19.174-19.177-19.174c-2.004,0-3.627,1.625-3.627,3.629
		c0,2.005,1.626,3.629,3.631,3.629c6.472,0,11.915,5.232,11.915,11.916v3.893c0,2.004,1.625,3.629,3.629,3.629
		c5.308,0,9.814,3.487,11.354,8.291h-38.824v-30.83c0-5.447,1.456-19.317,14.357-29.354c2.333-1.813,4.708-3.66,6.957-5.409
		c3.628-2.823,6.704-6.377,8.992-10.37c2.431,3.316,6.352,5.476,10.77,5.476c7.36,0,13.348-5.988,13.348-13.348V97.24
		c0-2.003-1.625-3.629-3.629-3.629s-3.629,1.625-3.629,3.629v13.604c0,3.358-2.73,6.089-6.09,6.089
		c-3.357,0-6.089-2.731-6.089-6.089v-9.722c0-8.729,7.062-15.803,15.804-15.803h10.162l10.6,10.599
		c0.681,0.681,1.604,1.062,2.565,1.062h11.921v4.146H204.68z"/>
</g>
<g>
	<path fill="#FF7F00" d="M127.372,122.847c-7.494,0.009-13.567,6.081-13.575,13.575c0,2.499,2.027,4.525,4.526,4.525
		s4.526-2.026,4.526-4.525c0-2.499,2.024-4.526,4.523-4.526c2.499,0,4.526,2.027,4.526,4.526c0,2.499,2.027,4.525,4.526,4.525
		s4.523-2.026,4.523-4.525C140.941,128.927,134.869,122.855,127.372,122.847z"/>
	<path fill="#FF7F00" d="M172.628,122.847c-7.495,0.009-13.569,6.081-13.577,13.575c0,2.499,2.027,4.525,4.526,4.525
		s4.524-2.026,4.524-4.525c0-2.499,2.028-4.526,4.526-4.526c2.5,0,4.525,2.027,4.525,4.526c0,2.499,2.026,4.525,4.525,4.525
		c2.501,0,4.526-2.026,4.526-4.525C186.194,128.927,180.121,122.855,172.628,122.847z"/>
	<path fill="#FF7F00" d="M231.788,104.912c-10.876-23.392-39.063-23.766-47.332-23.367c-8.169-7.958-19.152-13.002-34.456-13.002
		c-15.303,0-26.289,5.044-34.458,13.002c-8.267-0.399-36.45-0.012-47.331,23.367c-13.793,29.645-16.82,50.179-9.001,61.032
		c3.499,4.786,9.144,7.521,15.069,7.3c0.965,0,1.927-0.055,2.885-0.167c3.1-0.375,6.122-1.246,8.949-2.574
		c-3.55,18.57-1.423,32.573,6.634,42.613c9.899,12.338,28.629,18.342,57.252,18.342c28.623,0,47.351-6.003,57.25-18.342
		c8.058-10.04,10.185-24.041,6.635-42.613c2.827,1.328,5.849,2.199,8.95,2.574c0.957,0.112,1.921,0.167,2.885,0.167
		c5.924,0.222,11.571-2.517,15.068-7.3C248.606,155.091,245.579,134.555,231.788,104.912z M76.144,164.088
		c-3.587,0.717-7.276-0.605-9.589-3.44c-2.611-3.622-6.877-15.935,9.859-51.917c6.452-13.872,21.8-17.29,31.625-18.009
		c-10.434,16.086-14.369,38.356-17.808,58.021c-0.492,2.817-0.977,5.566-1.473,8.274C87.391,159.869,82.021,163.411,76.144,164.088z
		 M150,195.25c-4.996-0.005-9.048-4.053-9.052-9.049h18.102C159.045,191.197,154.997,195.245,150,195.25z M200.194,207.449
		c-7.58,9.448-22.615,14.276-45.67,14.84v-18.63c7.972-2.051,13.552-9.226,13.575-17.458c-0.006-4.995-4.054-9.046-9.049-9.051
		h-18.103c-4.997,0.006-9.046,4.056-9.05,9.051c0.025,8.232,5.604,15.407,13.575,17.458v18.63
		c-23.054-0.564-38.091-5.392-45.667-14.84c-6.714-8.37-8.098-20.922-4.216-38.369c1.289-5.822,2.402-12.188,3.555-18.782
		c5.958-34.084,12.711-72.708,50.854-72.708s44.894,38.623,50.852,72.708c1.152,6.594,2.267,12.958,3.558,18.782
		C208.29,186.527,206.907,199.079,200.194,207.449z M233.445,160.647c-2.323,2.821-6.005,4.142-9.592,3.441
		c-5.874-0.675-11.246-4.22-12.614-7.069c-0.496-2.709-0.981-5.457-1.472-8.274c-3.438-19.666-7.375-41.938-17.811-58.026
		c9.825,0.72,25.179,4.144,31.628,18.012C240.321,144.712,236.058,157.025,233.445,160.647z"/>
</g>
</svg>
